<mxfile host="app.diagrams.net" agent="Mozilla/5.0 (X11; Linux x86_64) AppleWebKit/537.36 (KHTML, like Gecko) Chrome/134.0.0.0 Safari/537.36" version="27.0.4">
  <diagram name="Page-1" id="kV-45eQNpwQn6KGaD91V">
    <mxGraphModel dx="1426" dy="759" grid="1" gridSize="10" guides="1" tooltips="1" connect="1" arrows="1" fold="1" page="1" pageScale="1" pageWidth="827" pageHeight="1169" math="0" shadow="0">
      <root>
        <mxCell id="0" />
        <mxCell id="1" parent="0" />
        <mxCell id="aHgUXemeiwbD6eJTPdw7-1" value="RADAR" style="shape=umlLifeline;perimeter=lifelinePerimeter;whiteSpace=wrap;html=1;container=1;dropTarget=0;collapsible=0;recursiveResize=0;outlineConnect=0;portConstraint=eastwest;newEdgeStyle={&quot;edgeStyle&quot;:&quot;elbowEdgeStyle&quot;,&quot;elbow&quot;:&quot;vertical&quot;,&quot;curved&quot;:0,&quot;rounded&quot;:0};fontFamily=modern;fontSource=https%3A%2F%2Fsourceforge.net%2Fprojects%2Fcm-unicode%2F;fontSize=12;" parent="1" vertex="1">
          <mxGeometry x="170" y="40" width="100" height="360" as="geometry" />
        </mxCell>
        <mxCell id="aHgUXemeiwbD6eJTPdw7-2" value="" style="html=1;points=[[0,0,0,0,5],[0,1,0,0,-5],[1,0,0,0,5],[1,1,0,0,-5]];perimeter=orthogonalPerimeter;outlineConnect=0;targetShapes=umlLifeline;portConstraint=eastwest;newEdgeStyle={&quot;curved&quot;:0,&quot;rounded&quot;:0};fontFamily=modern;fontSource=https%3A%2F%2Fsourceforge.net%2Fprojects%2Fcm-unicode%2F;fontSize=12;" parent="aHgUXemeiwbD6eJTPdw7-1" vertex="1">
          <mxGeometry x="45" y="60" width="10" height="290" as="geometry" />
        </mxCell>
        <mxCell id="aHgUXemeiwbD6eJTPdw7-3" value="START_SWEEP" style="html=1;verticalAlign=bottom;startArrow=oval;endArrow=block;startSize=8;curved=0;rounded=0;entryX=0;entryY=0;entryDx=0;entryDy=5;fontFamily=modern;fontSource=https%3A%2F%2Fsourceforge.net%2Fprojects%2Fcm-unicode%2F;fontSize=12;" parent="aHgUXemeiwbD6eJTPdw7-1" target="aHgUXemeiwbD6eJTPdw7-2" edge="1">
          <mxGeometry relative="1" as="geometry">
            <mxPoint x="-80" y="65" as="sourcePoint" />
          </mxGeometry>
        </mxCell>
        <mxCell id="aHgUXemeiwbD6eJTPdw7-4" value="Time module&lt;br&gt;(On satellite)" style="shape=umlLifeline;perimeter=lifelinePerimeter;whiteSpace=wrap;html=1;container=1;dropTarget=0;collapsible=0;recursiveResize=0;outlineConnect=0;portConstraint=eastwest;newEdgeStyle={&quot;edgeStyle&quot;:&quot;elbowEdgeStyle&quot;,&quot;elbow&quot;:&quot;vertical&quot;,&quot;curved&quot;:0,&quot;rounded&quot;:0};fontFamily=modern;fontSource=https%3A%2F%2Fsourceforge.net%2Fprojects%2Fcm-unicode%2F;fontSize=12;" parent="1" vertex="1">
          <mxGeometry x="330" y="40" width="100" height="360" as="geometry" />
        </mxCell>
        <mxCell id="aHgUXemeiwbD6eJTPdw7-5" value="" style="html=1;points=[[0,0,0,0,5],[0,1,0,0,-5],[1,0,0,0,5],[1,1,0,0,-5]];perimeter=orthogonalPerimeter;outlineConnect=0;targetShapes=umlLifeline;portConstraint=eastwest;newEdgeStyle={&quot;curved&quot;:0,&quot;rounded&quot;:0};fontFamily=modern;fontSource=https%3A%2F%2Fsourceforge.net%2Fprojects%2Fcm-unicode%2F;fontSize=12;" parent="aHgUXemeiwbD6eJTPdw7-4" vertex="1">
          <mxGeometry x="45" y="90" width="10" height="30" as="geometry" />
        </mxCell>
        <mxCell id="aHgUXemeiwbD6eJTPdw7-10" value="Beam seering" style="shape=umlLifeline;perimeter=lifelinePerimeter;whiteSpace=wrap;html=1;container=1;dropTarget=0;collapsible=0;recursiveResize=0;outlineConnect=0;portConstraint=eastwest;newEdgeStyle={&quot;edgeStyle&quot;:&quot;elbowEdgeStyle&quot;,&quot;elbow&quot;:&quot;vertical&quot;,&quot;curved&quot;:0,&quot;rounded&quot;:0};fontFamily=modern;fontSource=https%3A%2F%2Fsourceforge.net%2Fprojects%2Fcm-unicode%2F;fontSize=12;" parent="1" vertex="1">
          <mxGeometry x="460" y="40" width="100" height="360" as="geometry" />
        </mxCell>
        <mxCell id="aHgUXemeiwbD6eJTPdw7-11" value="Transmitter" style="shape=umlLifeline;perimeter=lifelinePerimeter;whiteSpace=wrap;html=1;container=1;dropTarget=0;collapsible=0;recursiveResize=0;outlineConnect=0;portConstraint=eastwest;newEdgeStyle={&quot;edgeStyle&quot;:&quot;elbowEdgeStyle&quot;,&quot;elbow&quot;:&quot;vertical&quot;,&quot;curved&quot;:0,&quot;rounded&quot;:0};fontFamily=modern;fontSource=https%3A%2F%2Fsourceforge.net%2Fprojects%2Fcm-unicode%2F;fontSize=12;" parent="1" vertex="1">
          <mxGeometry x="590" y="40" width="100" height="360" as="geometry" />
        </mxCell>
        <mxCell id="aHgUXemeiwbD6eJTPdw7-12" value="GET_CURRENT_TIME" style="html=1;verticalAlign=bottom;endArrow=block;curved=0;rounded=0;entryX=0;entryY=0;entryDx=0;entryDy=5;fontFamily=modern;fontSource=https%3A%2F%2Fsourceforge.net%2Fprojects%2Fcm-unicode%2F;fontSize=12;" parent="1" source="aHgUXemeiwbD6eJTPdw7-2" target="aHgUXemeiwbD6eJTPdw7-5" edge="1">
          <mxGeometry relative="1" as="geometry">
            <mxPoint x="260" y="135" as="sourcePoint" />
          </mxGeometry>
        </mxCell>
        <mxCell id="aHgUXemeiwbD6eJTPdw7-13" value="CURRENT_TIME" style="html=1;verticalAlign=bottom;endArrow=open;dashed=1;endSize=8;curved=0;rounded=0;exitX=0;exitY=1;exitDx=0;exitDy=-5;fontFamily=modern;fontSource=https%3A%2F%2Fsourceforge.net%2Fprojects%2Fcm-unicode%2F;fontSize=12;" parent="1" source="aHgUXemeiwbD6eJTPdw7-5" target="aHgUXemeiwbD6eJTPdw7-2" edge="1">
          <mxGeometry relative="1" as="geometry">
            <mxPoint x="260" y="205" as="targetPoint" />
          </mxGeometry>
        </mxCell>
        <mxCell id="aHgUXemeiwbD6eJTPdw7-18" value="for N sweep_angles" style="shape=umlFrame;whiteSpace=wrap;html=1;pointerEvents=0;width=110;height=30;fontFamily=modern;fontSource=https%3A%2F%2Fsourceforge.net%2Fprojects%2Fcm-unicode%2F;fontSize=12;" parent="1" vertex="1">
          <mxGeometry x="220" y="180" width="460" height="200" as="geometry" />
        </mxCell>
        <mxCell id="aHgUXemeiwbD6eJTPdw7-19" value="" style="html=1;points=[[0,0,0,0,5],[0,1,0,0,-5],[1,0,0,0,5],[1,1,0,0,-5]];perimeter=orthogonalPerimeter;outlineConnect=0;targetShapes=umlLifeline;portConstraint=eastwest;newEdgeStyle={&quot;curved&quot;:0,&quot;rounded&quot;:0};fontFamily=modern;fontSource=https%3A%2F%2Fsourceforge.net%2Fprojects%2Fcm-unicode%2F;fontSize=12;" parent="1" vertex="1">
          <mxGeometry x="505" y="230" width="10" height="30" as="geometry" />
        </mxCell>
        <mxCell id="aHgUXemeiwbD6eJTPdw7-22" value="for N frame_chirps" style="shape=umlFrame;whiteSpace=wrap;html=1;pointerEvents=0;width=110;height=30;fontFamily=modern;fontSource=https%3A%2F%2Fsourceforge.net%2Fprojects%2Fcm-unicode%2F;fontSize=12;" parent="1" vertex="1">
          <mxGeometry x="220" y="280" width="450" height="90" as="geometry" />
        </mxCell>
        <mxCell id="aHgUXemeiwbD6eJTPdw7-23" value="" style="html=1;points=[[0,0,0,0,5],[0,1,0,0,-5],[1,0,0,0,5],[1,1,0,0,-5]];perimeter=orthogonalPerimeter;outlineConnect=0;targetShapes=umlLifeline;portConstraint=eastwest;newEdgeStyle={&quot;curved&quot;:0,&quot;rounded&quot;:0};fontFamily=modern;fontSource=https%3A%2F%2Fsourceforge.net%2Fprojects%2Fcm-unicode%2F;fontSize=12;" parent="1" vertex="1">
          <mxGeometry x="635" y="315" width="10" height="35" as="geometry" />
        </mxCell>
        <mxCell id="aHgUXemeiwbD6eJTPdw7-24" value="SEND_CHIRP" style="html=1;verticalAlign=bottom;endArrow=block;curved=0;rounded=0;entryX=0;entryY=0;entryDx=0;entryDy=5;fontFamily=modern;fontSource=https%3A%2F%2Fsourceforge.net%2Fprojects%2Fcm-unicode%2F;fontSize=12;" parent="1" source="aHgUXemeiwbD6eJTPdw7-2" target="aHgUXemeiwbD6eJTPdw7-23" edge="1">
          <mxGeometry relative="1" as="geometry">
            <mxPoint x="385" y="320" as="sourcePoint" />
          </mxGeometry>
        </mxCell>
        <mxCell id="aHgUXemeiwbD6eJTPdw7-25" value="CHIRP_DONE" style="html=1;verticalAlign=bottom;endArrow=open;dashed=1;endSize=8;curved=0;rounded=0;exitX=0;exitY=1;exitDx=0;exitDy=-5;fontFamily=modern;fontSource=https%3A%2F%2Fsourceforge.net%2Fprojects%2Fcm-unicode%2F;fontSize=12;" parent="1" source="aHgUXemeiwbD6eJTPdw7-23" target="aHgUXemeiwbD6eJTPdw7-2" edge="1">
          <mxGeometry relative="1" as="geometry">
            <mxPoint x="385" y="345" as="targetPoint" />
          </mxGeometry>
        </mxCell>
        <mxCell id="aHgUXemeiwbD6eJTPdw7-26" value="&lt;span style=&quot;font-family: modern; font-size: 12px;&quot;&gt;GET_BEAM_AT_ANGLE&lt;/span&gt;" style="html=1;verticalAlign=bottom;endArrow=block;curved=0;rounded=0;" parent="1" edge="1">
          <mxGeometry width="80" relative="1" as="geometry">
            <mxPoint x="225" y="235" as="sourcePoint" />
            <mxPoint x="504" y="235" as="targetPoint" />
          </mxGeometry>
        </mxCell>
        <mxCell id="aHgUXemeiwbD6eJTPdw7-27" value="&lt;span style=&quot;font-family: modern; font-size: 12px;&quot;&gt;PHASED_CHIRPS&lt;/span&gt;" style="html=1;verticalAlign=bottom;endArrow=open;dashed=1;endSize=8;curved=0;rounded=0;exitX=0;exitY=1;exitDx=0;exitDy=-5;exitPerimeter=0;entryX=1.138;entryY=0.57;entryDx=0;entryDy=0;entryPerimeter=0;" parent="1" source="aHgUXemeiwbD6eJTPdw7-19" edge="1">
          <mxGeometry relative="1" as="geometry">
            <mxPoint x="500" y="256" as="sourcePoint" />
            <mxPoint x="226.3800000000001" y="255.29999999999995" as="targetPoint" />
          </mxGeometry>
        </mxCell>
      </root>
    </mxGraphModel>
  </diagram>
</mxfile>
